<svg width="100" height="102"><defs id="SvgjsDefs1792"></defs><g id="SvgjsG1793" featurekey="root" fill="#ffffff"></g><g id="SvgjsG1794" featurekey="symbol1" fill="#000000" transform="matrix(0.9722222222222222,0,0,0.9722222222222222,-3.6111111111111107,2.2222222222222223)"><path d="M29,92h-3c-6.628,0-12-5.373-12-12V20c0-6.628,5.372-12,12-12h3V92z"></path><path d="M80,8H35v84h45c3.314,0,6-2.686,6-6V14C86,10.686,83.314,8,80,8z M77,44c0,1.657-1.343,3-3,3h-9v24  c0,1.657-1.343,3-3,3h-6c-1.657,0-3-1.343-3-3V47h-9c-1.657,0-3-1.343-3-3v-6c0-1.657,1.343-3,3-3h9v-9c0-1.657,1.343-3,3-3h6  c1.657,0,3,1.343,3,3v9h9c1.657,0,3,1.343,3,3V44z"></path></g><g id="SvgjsG1795" featurekey="text1" fill="#000000" transform="matrix(1,0,0,1,100,51)"><path d=""></path></g></svg>