<svg width="300" height="102"><defs id="SvgjsDefs1227"></defs><g id="SvgjsG1228" featurekey="root" fill="#000000"></g><g id="SvgjsG1229" featurekey="symbol1" fill="#ffffff" transform="matrix(0.9722222222222222,0,0,0.9722222222222222,-3.6111111111111107,2.2222222222222223)"><path d="M29,92h-3c-6.628,0-12-5.373-12-12V20c0-6.628,5.372-12,12-12h3V92z"></path><path d="M80,8H35v84h45c3.314,0,6-2.686,6-6V14C86,10.686,83.314,8,80,8z M77,44c0,1.657-1.343,3-3,3h-9v24  c0,1.657-1.343,3-3,3h-6c-1.657,0-3-1.343-3-3V47h-9c-1.657,0-3-1.343-3-3v-6c0-1.657,1.343-3,3-3h9v-9c0-1.657,1.343-3,3-3h6  c1.657,0,3,1.343,3,3v9h9c1.657,0,3,1.343,3,3V44z"></path></g><g id="SvgjsG1230" featurekey="text1" fill="#ffffff" transform="matrix(1.49618082383744,0,0,1.49618082383744,98.95267370868764,22.24765759063576)"><path d="M9.98 9.86 l1.22 0 l0 6.48 l0 7.66 l-1.22 0 l0 -2.22 c-0.68 1.48 -2.2 2.42 -4.04 2.42 c-2.34 0 -5.24 -1.8 -5.24 -5.38 s2.9 -5.4 5.24 -5.4 c1.84 0 3.36 0.94 4.04 2.4 l0 -5.96 z M6.04 23.1 c1.94 0 4 -1.36 4 -4.28 c0 -2.94 -2.06 -4.3 -4 -4.3 c-1.86 0 -4.14 1.4 -4.14 4.3 c0 2.88 2.28 4.28 4.14 4.28 z M18.32 13.42 c1.84 0 3.36 0.94 4.04 2.4 l0 -2.22 l1.22 0 l0 10.4 l-1.22 0 l0 -2.22 c-0.68 1.48 -2.2 2.42 -4.04 2.42 c-2.34 0 -5.24 -1.8 -5.24 -5.38 s2.9 -5.4 5.24 -5.4 z M18.42 14.52 c-1.86 0 -4.14 1.4 -4.14 4.3 c0 2.88 2.28 4.28 4.14 4.28 c1.94 0 4 -1.36 4 -4.28 c0 -2.94 -2.06 -4.3 -4 -4.3 z M27.16 9.86 l0 1.14 l-1.22 0 l0 -1.14 l1.22 0 z M27.16 13.6 l0 10.4 l-1.22 0 l0 -10.4 l1.22 0 z M30.740000000000002 9.86 l0 14.14 l-1.22 0 l0 -14.14 l1.22 0 z M41.38 13.6 l1.24 0 l-6.32 14.2 l-1.22 0 l1.82 -4.1 l-4.48 -10.1 l1.24 0 l3.86 8.7 z M49.10000000000001 13.42 c2.36 0 5.46 1.82 5.12 5.86 l-9.18 0 c0.22 2.58 2.24 3.84 4.3 3.84 c1.46 0 2.52 -0.42 3.32 -1.3 l0.74 0.66 c-0.94 1.18 -2.32 1.72 -4.08 1.72 c-2.68 0 -5.5 -1.82 -5.5 -5.4 c0 -3.56 2.92 -5.38 5.28 -5.38 z M49.10000000000001 14.5 c-1.72 0 -3.82 1.26 -4.06 3.8 l8.1 0 c-0.14 -2.54 -2.32 -3.8 -4.04 -3.8 z M61.400000000000006 13.42 c2.34 0 5.24 1.82 5.24 5.4 s-2.9 5.38 -5.24 5.38 c-1.84 0 -3.36 -0.94 -4.04 -2.42 l0 6.02 l-1.22 0 l0 -6.64 l0 -7.56 l1.22 0 l0 2.22 c0.68 -1.46 2.2 -2.4 4.04 -2.4 z M61.30000000000001 23.1 c1.86 0 4.14 -1.4 4.14 -4.28 c0 -2.9 -2.28 -4.3 -4.14 -4.3 c-1.94 0 -4 1.36 -4 4.3 c0 2.92 2.06 4.28 4 4.28 z M69.74000000000001 9.86 l0 1.14 l-1.22 0 l0 -1.14 l1.22 0 z M69.74000000000001 13.6 l0 10.4 l-1.22 0 l0 -10.4 l1.22 0 z M77.18 15.92 c-0.42 -0.88 -1.16 -1.48 -2.24 -1.48 c-1.16 0 -1.92 0.7 -1.92 1.62 c0 0.8 0.42 1.42 1.64 1.84 l0.96 0.34 c1.8 0.64 3.02 1.32 3.02 3.06 c0 1.94 -1.88 2.9 -3.56 2.9 c-1.76 0 -3.3 -1 -3.66 -2.72 l1 -0.28 c0.34 1.28 1.42 1.98 2.66 1.98 c1.14 0 2.36 -0.64 2.36 -1.86 c0 -1.08 -0.76 -1.62 -1.98 -2.04 l-1.16 -0.4 c-1.76 -0.62 -2.46 -1.64 -2.46 -2.8 c0 -1.56 1.34 -2.66 3.08 -2.66 c1.6 0 2.74 0.86 3.26 2.18 z M84.66000000000001 14.64 l-2.18 0 l0 7.42 c0 0.64 0.28 0.98 0.82 0.98 c0.52 0 0.9 -0.14 1.34 -0.36 l0 1.06 c-0.44 0.24 -0.9 0.38 -1.66 0.38 c-0.88 0 -1.72 -0.46 -1.72 -1.9 l0 -7.58 l-1.42 0 l0 -1.04 l1.42 0 l0 -2.44 l1.22 0 l0 2.44 l2.18 0 l0 1.04 z M87.76000000000002 9.86 l0 14.14 l-1.22 0 l0 -14.14 l1.22 0 z M94.92000000000002 13.42 c2.36 0 5.46 1.82 5.12 5.86 l-9.18 0 c0.22 2.58 2.24 3.84 4.3 3.84 c1.46 0 2.52 -0.42 3.32 -1.3 l0.74 0.66 c-0.94 1.18 -2.32 1.72 -4.08 1.72 c-2.68 0 -5.5 -1.82 -5.5 -5.4 c0 -3.56 2.92 -5.38 5.28 -5.38 z M94.92000000000002 14.5 c-1.72 0 -3.82 1.26 -4.06 3.8 l8.1 0 c-0.14 -2.54 -2.32 -3.8 -4.04 -3.8 z M102.24000000000001 24.1 c-0.56 0 -0.76 -0.2 -0.76 -0.76 c0 -0.58 0.2 -0.76 0.76 -0.76 c0.58 0 0.76 0.18 0.76 0.76 c0 0.56 -0.18 0.76 -0.76 0.76 z M109.68000000000002 13.42 c2.36 0 5.28 1.82 5.28 5.38 c0 3.6 -2.92 5.4 -5.28 5.4 s-5.28 -1.8 -5.28 -5.4 c0 -3.56 2.92 -5.38 5.28 -5.38 z M109.68000000000002 14.52 c-1.82 0 -4.08 1.4 -4.08 4.28 c0 2.9 2.26 4.3 4.08 4.3 s4.08 -1.4 4.08 -4.3 c0 -2.88 -2.26 -4.28 -4.08 -4.28 z M122.00000000000003 13.44 c0.16 0 0.3 0 0.44 0.02 l0 1.16 c-0.16 -0.04 -0.3 -0.04 -0.42 -0.04 c-2 0 -3.64 1.44 -3.96 3.9 l0 5.52 l-1.22 0 l0 -10.4 l1.22 0 l0 2.78 c0.34 -1.52 1.82 -2.94 3.94 -2.94 z M133.02 13.6 l1.22 0 l0 10.4 c0 3.12 -2.64 4.12 -4.56 4.12 c-1.72 0 -2.76 -0.48 -3.2 -0.86 l0 -1.08 c0.44 0.38 1.48 0.88 3.2 0.88 c1.78 0 3.34 -1 3.34 -3.06 l0 -2.22 c-0.68 1.48 -2.2 2.42 -4.04 2.42 c-2.34 0 -5.24 -1.8 -5.24 -5.38 s2.9 -5.4 5.24 -5.4 c1.84 0 3.36 0.94 4.04 2.4 l0 -2.22 z M129.08 23.1 c1.94 0 4 -1.36 4 -4.28 c0 -2.94 -2.06 -4.3 -4 -4.3 c-1.86 0 -4.14 1.4 -4.14 4.3 c0 2.88 2.28 4.28 4.14 4.28 z"></path></g></svg>